<?xml version="1.0" encoding="UTF-8"?>
<svg xmlns="http://www.w3.org/2000/svg" viewBox="0 0 200 200" width="200" height="200">
  <!-- Background circle -->
  <circle cx="100" cy="100" r="95" fill="#2c5aa0" stroke="#8b4513" stroke-width="3"/>
  
  <!-- Cross -->
  <rect x="90" y="40" width="20" height="120" fill="#d4af37" rx="2"/>
  <rect x="50" y="90" width="100" height="20" fill="#d4af37" rx="2"/>
  
  <!-- Tech elements - circuit pattern -->
  <g stroke="#d4af37" stroke-width="2" fill="none" opacity="0.7">
    <!-- Corner circuits -->
    <path d="M30 30 L40 30 L40 40 M160 30 L170 30 L170 40 M30 170 L40 170 L40 160 M160 170 L170 170 L170 160"/>
    <!-- Side circuits -->
    <path d="M20 60 L30 60 M170 60 L180 60 M20 140 L30 140 M170 140 L180 140"/>
    <!-- Small dots for connection points -->
    <circle cx="35" cy="35" r="2" fill="#d4af37"/>
    <circle cx="165" cy="35" r="2" fill="#d4af37"/>
    <circle cx="35" cy="165" r="2" fill="#d4af37"/>
    <circle cx="165" cy="165" r="2" fill="#d4af37"/>
  </g>
  
  <!-- Central highlight on cross -->
  <circle cx="100" cy="100" r="8" fill="#ffffff" opacity="0.3"/>
</svg>